<svg width="8" height="12" viewBox="0 0 8 12" fill="none" xmlns="http://www.w3.org/2000/svg">
<path d="M0.850016 11.4499C0.716682 11.2832 0.645848 11.0999 0.637515 10.8999C0.629182 10.6999 0.700016 10.5249 0.850016 10.3749L5.25002 5.97491L0.825015 1.54991C0.691682 1.41658 0.629182 1.23741 0.637515 1.01241C0.645848 0.787411 0.716682 0.608245 0.850016 0.474911C1.01668 0.308245 1.19585 0.229078 1.38752 0.237412C1.57918 0.245745 1.75001 0.324911 1.90001 0.474911L6.87502 5.44991C6.95835 5.53324 7.01668 5.61658 7.05002 5.69991C7.08335 5.78324 7.10002 5.87491 7.10002 5.97491C7.10002 6.07491 7.08335 6.16658 7.05002 6.24991C7.01668 6.33324 6.95835 6.41658 6.87502 6.49991L1.92502 11.4499C1.77502 11.5999 1.60001 11.6707 1.40001 11.6624C1.20001 11.6541 1.01668 11.5832 0.850016 11.4499Z" fill="black"/>
</svg>
