<svg width="9" height="16" viewBox="0 0 9 16" fill="none" xmlns="http://www.w3.org/2000/svg">
<path d="M6.96665 15.2668L0.36665 8.66683C0.255539 8.55572 0.177762 8.44461 0.133317 8.3335C0.0888729 8.22239 0.0666504 8.10016 0.0666504 7.96683C0.0666504 7.8335 0.0888729 7.71127 0.133317 7.60016C0.177762 7.48905 0.255539 7.37794 0.36665 7.26683L6.99998 0.633496C7.19998 0.433496 7.43887 0.333496 7.71665 0.333496C7.99443 0.333496 8.23332 0.433496 8.43332 0.633496C8.63332 0.833496 8.72776 1.07794 8.71665 1.36683C8.70554 1.65572 8.59998 1.90016 8.39998 2.10016L2.53332 7.96683L8.43332 13.8668C8.63332 14.0668 8.73332 14.3002 8.73332 14.5668C8.73332 14.8335 8.63332 15.0668 8.43332 15.2668C8.23332 15.4668 7.98887 15.5668 7.69998 15.5668C7.41109 15.5668 7.16665 15.4668 6.96665 15.2668Z" fill="#262727"/>
</svg>
