<svg width="18" height="18" viewBox="0 0 18 18" fill="none" xmlns="http://www.w3.org/2000/svg">
<path d="M9.00006 8.89189C7.75423 8.89189 6.73861 8.49919 5.95319 7.71377C5.16777 6.92835 4.77507 5.91273 4.77507 4.66689C4.77507 3.42106 5.16777 2.40544 5.95319 1.62002C6.73861 0.834603 7.75423 0.441895 9.00006 0.441895C10.2459 0.441895 11.2615 0.834603 12.0469 1.62002C12.8324 2.40544 13.2251 3.42106 13.2251 4.66689C13.2251 5.91273 12.8324 6.92835 12.0469 7.71377C11.2615 8.49919 10.2459 8.89189 9.00006 8.89189ZM2.01257 17.9106C1.50701 17.9106 1.07368 17.7301 0.712565 17.369C0.351454 17.0079 0.170898 16.5745 0.170898 16.069V15.2023C0.170898 14.4801 0.351454 13.8617 0.712565 13.3471C1.07368 12.8325 1.53409 12.4398 2.09382 12.169C3.32159 11.6273 4.4952 11.2211 5.61465 10.9502C6.73409 10.6794 7.86257 10.544 9.00006 10.544C10.1376 10.544 11.2615 10.6839 12.3719 10.9638C13.4824 11.2436 14.6515 11.6544 15.8792 12.1961C16.457 12.4488 16.9265 12.8325 17.2876 13.3471C17.6487 13.8617 17.8292 14.4801 17.8292 15.2023V16.069C17.8292 16.5745 17.6487 17.0079 17.2876 17.369C16.9265 17.7301 16.4931 17.9106 15.9876 17.9106H2.01257ZM2.01257 16.069H15.9876V15.2294C15.9876 14.9405 15.9018 14.6652 15.7303 14.4034C15.5587 14.1415 15.3466 13.9475 15.0938 13.8211C13.9563 13.2794 12.9136 12.9047 11.9657 12.6971C11.0178 12.4895 10.0292 12.3856 9.00006 12.3856C7.9709 12.3856 6.97333 12.4895 6.00736 12.6971C5.04139 12.9047 3.99868 13.2794 2.87923 13.8211C2.62645 13.9475 2.41882 14.1415 2.25632 14.4034C2.09382 14.6652 2.01257 14.9405 2.01257 15.2294V16.069ZM9.00006 7.05023C9.68618 7.05023 10.2549 6.82453 10.7063 6.37314C11.1577 5.92176 11.3834 5.35301 11.3834 4.66689C11.3834 3.98078 11.1577 3.41203 10.7063 2.96064C10.2549 2.50926 9.68618 2.28356 9.00006 2.28356C8.31395 2.28356 7.7452 2.50926 7.29382 2.96064C6.84243 3.41203 6.61673 3.98078 6.61673 4.66689C6.61673 5.35301 6.84243 5.92176 7.29382 6.37314C7.7452 6.82453 8.31395 7.05023 9.00006 7.05023Z" fill="black"/>
</svg>
